<svg width="225" height="75" viewBox="0 0 225 75" fill="none" xmlns="http://www.w3.org/2000/svg">
<g opacity="0.8">
<path d="M0.52789 35.2073C0.512064 35.2317 0.488844 35.2504 0.461626 35.2607C0.434409 35.2709 0.404619 35.2723 0.376608 35.2644C0.348598 35.2565 0.323836 35.2399 0.305941 35.217C0.288047 35.194 0.277956 35.166 0.277145 35.1369V0.398172C0.277145 0.251539 0.350462 0.178223 0.497094 0.178223H35.139C35.5144 0.178223 35.5423 0.27793 35.2226 0.47735C20.9494 9.35155 9.3845 20.9282 0.52789 35.2073ZM5.46794 19.8417C9.82586 14.5512 14.6501 9.724 19.9406 5.36022C19.9613 5.34289 19.9762 5.31962 19.9832 5.29356C19.9903 5.26751 19.9892 5.23991 19.9801 5.2145C19.971 5.18909 19.9543 5.16708 19.9323 5.15144C19.9103 5.13581 19.884 5.12731 19.857 5.12707H5.44594C5.38761 5.12707 5.33167 5.15025 5.29042 5.1915C5.24917 5.23275 5.226 5.28869 5.226 5.34702V19.7581C5.22655 19.786 5.23565 19.813 5.25207 19.8356C5.26849 19.8582 5.29144 19.8752 5.31781 19.8843C5.34419 19.8934 5.37273 19.8942 5.39958 19.8866C5.42642 19.8789 5.45028 19.8633 5.46794 19.8417Z" fill="white"/>
<path d="M74.8485 0.47748C74.9277 23.6689 63.5563 45.8397 45.3665 59.569C32.935 68.9564 16.4213 75.1633 0.545344 74.7278C0.36352 74.722 0.275538 74.6281 0.281403 74.4463C1.25798 32.8891 33.0186 1.19012 74.5406 0.173956C74.5806 0.172778 74.6204 0.179756 74.6577 0.194482C74.695 0.209208 74.729 0.231375 74.7577 0.259679C74.7864 0.287982 74.8093 0.321844 74.8249 0.359256C74.8404 0.396667 74.8485 0.436868 74.8485 0.47748ZM39.3971 16.9517C50.5661 18.0558 58.5195 27.1353 58.2203 38.3747C58.2209 38.3996 58.2294 38.4237 58.2444 38.4436C58.2595 38.4635 58.2805 38.4781 58.3043 38.4854C58.3282 38.4927 58.3537 38.4923 58.3773 38.4843C58.4009 38.4763 58.4214 38.461 58.4359 38.4407C64.9464 28.4902 68.7075 17.5646 69.7193 5.66388C69.7369 5.47326 69.6503 5.38674 69.4597 5.40434C57.5532 6.40437 46.6217 10.164 36.6654 16.6833C36.6352 16.7017 36.6125 16.7297 36.601 16.7628C36.5895 16.7959 36.59 16.8321 36.6023 16.8654C36.6146 16.8987 36.638 16.9272 36.6686 16.946C36.6993 16.9649 36.7354 16.9731 36.7709 16.9692C37.6273 16.8695 38.5027 16.8637 39.3971 16.9517ZM53.2847 37.5081C53.2847 33.3524 51.6338 29.3668 48.6953 26.4283C45.7568 23.4898 41.7713 21.8389 37.6155 21.8389C33.4598 21.8389 29.4743 23.4898 26.5358 26.4283C23.5972 29.3668 21.9464 33.3524 21.9464 37.5081C21.9464 41.6638 23.5972 45.6493 26.5358 48.5879C29.4743 51.5264 33.4598 53.1772 37.6155 53.1772C41.7713 53.1772 45.7568 51.5264 48.6953 48.5879C51.6338 45.6493 53.2847 41.6638 53.2847 37.5081ZM38.4953 58.1393C26.231 58.3592 16.6104 48.985 16.9887 36.6679C16.9907 36.6413 16.9836 36.6148 16.9687 36.5927C16.9538 36.5706 16.9319 36.5542 16.9065 36.5461C16.8811 36.5379 16.8537 36.5386 16.8287 36.5479C16.8037 36.5572 16.7826 36.5747 16.7688 36.5975C10.2583 46.5656 6.50009 57.5014 5.49419 69.4051C5.48246 69.5605 5.55432 69.6309 5.70975 69.6162C17.5342 68.6221 28.4158 64.9108 38.3546 58.4824C38.4719 58.4062 38.5452 58.3299 38.5745 58.2537C38.6038 58.1745 38.5774 58.1364 38.4953 58.1393Z" fill="white"/>
<path d="M135.968 12.9445C136.032 12.9084 136.087 12.858 136.128 12.7971C136.17 12.7362 136.196 12.6665 136.206 12.5936C136.216 12.5206 136.209 12.4464 136.185 12.3768C136.161 12.3071 136.122 12.244 136.069 12.1922C135.635 11.7611 135.06 11.4825 134.345 11.3564C130.482 10.6702 125.177 9.14815 127.504 3.84738C129.616 -0.947506 136.923 -0.076504 140.842 1.43235C140.891 1.45113 140.935 1.47949 140.973 1.51581C141.011 1.55212 141.041 1.59567 141.062 1.64393C141.083 1.69219 141.094 1.74421 141.095 1.79699C141.095 1.84977 141.086 1.90225 141.066 1.95142L139.602 5.58058C139.583 5.62643 139.555 5.6678 139.519 5.702C139.483 5.73619 139.441 5.76245 139.394 5.77905C139.347 5.79565 139.297 5.80222 139.247 5.79835C139.197 5.79447 139.149 5.78022 139.104 5.75653C137.304 4.78583 135.39 4.45298 133.364 4.75797C133.263 4.77535 133.167 4.81931 133.087 4.88554C132.597 5.31077 132.578 5.74481 133.03 6.18764C133.116 6.27382 133.226 6.33339 133.346 6.3592C136.962 7.11582 143.71 8.04841 141.542 13.7979C139.5 19.2086 130.931 18.0605 126.968 16.1249C126.906 16.0953 126.859 16.0431 126.835 15.9791C126.811 15.9151 126.813 15.8444 126.84 15.7818L128.481 12.0339C128.545 11.8902 128.648 11.8535 128.789 11.9239C130.601 12.8565 134.05 14.0178 135.968 12.9445Z" fill="white"/>
<path d="M107.273 8.76068C109.561 9.65807 110.617 12.3414 109.557 14.5277C108.681 16.3269 106.323 17.2331 104.397 17.2991C101.757 17.39 98.1617 17.3885 93.6103 17.2947C93.4871 17.2918 93.4255 17.2287 93.4255 17.1055V0.842515C93.4255 0.788848 93.4468 0.737384 93.4848 0.699435C93.5227 0.661487 93.5742 0.640166 93.6279 0.640166C97.0855 0.591777 104.942 -0.226436 107.656 2.02584C109.873 3.85582 109.631 6.82952 107.238 8.40436C107.208 8.42466 107.183 8.45297 107.167 8.48624C107.151 8.5195 107.145 8.55647 107.148 8.59314C107.152 8.62981 107.166 8.66479 107.188 8.69432C107.21 8.72384 107.239 8.74679 107.273 8.76068ZM99.0298 4.84559L99.0386 6.84272C99.0386 6.88472 99.0553 6.925 99.085 6.9547C99.1147 6.9844 99.155 7.00108 99.197 7.00108L101.885 6.98789C102.289 6.98636 102.677 6.87107 102.962 6.66734C103.248 6.46361 103.407 6.18811 103.407 5.90134V5.75178C103.406 5.60955 103.367 5.46883 103.289 5.33767C103.212 5.20651 103.099 5.08748 102.957 4.98739C102.815 4.88729 102.646 4.80809 102.461 4.75432C102.275 4.70055 102.077 4.67327 101.876 4.67403L99.1882 4.68722C99.1462 4.68722 99.1059 4.70391 99.0762 4.73361C99.0465 4.76331 99.0298 4.80359 99.0298 4.84559ZM99.0298 10.9646V13.2344C99.0298 13.2683 99.0433 13.3007 99.0672 13.3246C99.0911 13.3486 99.1235 13.362 99.1574 13.362H102.487C102.94 13.362 103.374 13.2332 103.694 13.0038C104.014 12.7745 104.194 12.4634 104.194 12.1391V12.0599C104.194 11.7356 104.014 11.4245 103.694 11.1952C103.374 10.9658 102.94 10.837 102.487 10.837H99.1574C99.1235 10.837 99.0911 10.8504 99.0672 10.8744C99.0433 10.8983 99.0298 10.9307 99.0298 10.9646Z" fill="white"/>
<path d="M117.4 11.1982V12.8038C117.4 12.8356 117.406 12.8671 117.418 12.8964C117.431 12.9258 117.448 12.9524 117.471 12.9749C117.493 12.9974 117.52 13.0152 117.549 13.0273C117.579 13.0395 117.61 13.0458 117.642 13.0458H125.516C125.58 13.0458 125.642 13.0713 125.687 13.1166C125.733 13.162 125.758 13.2235 125.758 13.2877L125.754 17.0928C125.754 17.157 125.728 17.2185 125.683 17.2639C125.637 17.3093 125.576 17.3348 125.512 17.3348H112.033C111.969 17.3348 111.908 17.3093 111.862 17.2639C111.817 17.2185 111.791 17.157 111.791 17.0928V0.860597C111.791 0.79643 111.817 0.734887 111.862 0.689514C111.908 0.644141 111.969 0.618652 112.033 0.618652H125.186C125.25 0.618652 125.312 0.644141 125.357 0.689514C125.403 0.734887 125.428 0.79643 125.428 0.860597V4.66571C125.428 4.72988 125.403 4.79142 125.357 4.83679C125.312 4.88217 125.25 4.90766 125.186 4.90766H117.642C117.578 4.90766 117.516 4.93315 117.471 4.97852C117.425 5.02389 117.4 5.08543 117.4 5.1496V6.53528C117.4 6.59944 117.425 6.66099 117.471 6.70636C117.516 6.75173 117.578 6.77722 117.642 6.77722H124.196C124.261 6.77722 124.322 6.80271 124.367 6.84808C124.413 6.89346 124.438 6.955 124.438 7.01917V10.7143C124.438 10.7785 124.413 10.84 124.367 10.8854C124.322 10.9308 124.261 10.9563 124.196 10.9563H117.642C117.578 10.9563 117.516 10.9817 117.471 11.0271C117.425 11.0725 117.4 11.134 117.4 11.1982Z" fill="white"/>
<path d="M152.482 5.27277V17.0796C152.482 17.1473 152.455 17.2122 152.407 17.26C152.359 17.3079 152.294 17.3348 152.227 17.3348H147.018C146.951 17.3348 146.886 17.3079 146.838 17.26C146.79 17.2122 146.763 17.1473 146.763 17.0796V5.27277C146.763 5.23927 146.757 5.20609 146.744 5.17514C146.731 5.14418 146.712 5.11605 146.688 5.09236C146.665 5.06867 146.637 5.04987 146.606 5.03705C146.575 5.02423 146.542 5.01763 146.508 5.01763H142.179C142.112 5.01763 142.047 4.99075 141.999 4.9429C141.951 4.89505 141.924 4.83016 141.924 4.76249V0.873794C141.924 0.806126 141.951 0.741229 141.999 0.69338C142.047 0.645532 142.112 0.618652 142.179 0.618652H157.176C157.243 0.618652 157.308 0.645532 157.356 0.69338C157.404 0.741229 157.431 0.806126 157.431 0.873794V4.76249C157.431 4.83016 157.404 4.89505 157.356 4.9429C157.308 4.99075 157.243 5.01763 157.176 5.01763H152.737C152.704 5.01763 152.67 5.02423 152.639 5.03705C152.608 5.04987 152.58 5.06867 152.557 5.09236C152.533 5.11605 152.514 5.14418 152.501 5.17514C152.488 5.20609 152.482 5.23927 152.482 5.27277Z" fill="white"/>
<path d="M95.3787 43.755C92.0795 40.8428 91.9035 34.8338 94.974 31.627C98.7087 27.7339 105.954 27.7207 109.513 31.9437C109.615 32.0669 109.606 32.1827 109.486 32.2912L106.191 35.2605C106.168 35.2815 106.141 35.2976 106.112 35.3079C106.082 35.3182 106.051 35.3224 106.02 35.3204C105.988 35.3183 105.958 35.31 105.93 35.296C105.902 35.2819 105.877 35.2624 105.857 35.2385C101.471 30.0741 95.8186 36.8046 99.8261 40.7021C101.594 42.4221 104.353 41.5863 105.866 39.7739C105.885 39.7511 105.908 39.7324 105.935 39.7189C105.961 39.7054 105.99 39.6974 106.02 39.6953C106.049 39.6933 106.079 39.6972 106.107 39.7069C106.135 39.7167 106.161 39.7319 106.183 39.7519L109.451 42.6772C109.577 42.7916 109.589 42.9162 109.486 43.0511C106.108 47.4677 99.0607 47.0058 95.3787 43.755Z" fill="white"/>
<path d="M129.057 37.4875C129.059 38.6457 128.815 39.7931 128.339 40.864C127.863 41.9349 127.164 42.9084 126.282 43.729C125.401 44.5495 124.353 45.201 123.2 45.6463C122.047 46.0915 120.811 46.3218 119.562 46.324C118.313 46.3262 117.076 46.1002 115.921 45.659C114.767 45.2178 113.717 44.5699 112.832 43.7524C111.948 42.935 111.246 41.9639 110.766 40.8946C110.286 39.8254 110.038 38.6789 110.036 37.5206C110.034 36.3624 110.278 35.215 110.754 34.1441C111.23 33.0732 111.929 32.0997 112.811 31.2791C113.692 30.4586 114.74 29.8071 115.893 29.3618C117.046 28.9166 118.282 28.6863 119.531 28.6841C120.78 28.6819 122.017 28.9079 123.172 29.3491C124.327 29.7904 125.376 30.4382 126.261 31.2557C127.145 32.0731 127.848 33.0442 128.327 34.1135C128.807 35.1827 129.055 36.3292 129.057 37.4875ZM119.535 41.6171C120.515 41.6188 121.456 41.1871 122.15 40.417C122.844 39.6469 123.235 38.6014 123.237 37.5105C123.238 36.9704 123.144 36.4354 122.959 35.936C122.774 35.4367 122.503 34.9828 122.16 34.6003C121.818 34.2177 121.411 33.914 120.963 33.7066C120.515 33.4991 120.035 33.3919 119.549 33.391C118.569 33.3893 117.629 33.821 116.934 34.5911C116.24 35.3613 115.849 36.4067 115.847 37.4976C115.846 38.0377 115.941 38.5727 116.126 39.0721C116.31 39.5714 116.582 40.0253 116.924 40.4079C117.267 40.7904 117.674 41.0941 118.122 41.3015C118.569 41.509 119.05 41.6163 119.535 41.6171Z" fill="white"/>
<path d="M145.514 38.8595L142.267 44.3186C142.254 44.3406 142.236 44.3586 142.213 44.371C142.191 44.3834 142.165 44.3896 142.14 44.389H139.72C139.696 44.3888 139.671 44.3822 139.65 44.3699C139.628 44.3576 139.61 44.3399 139.597 44.3186L136.364 39.0443C136.347 39.0177 136.323 38.9971 136.293 38.9858C136.264 38.9744 136.232 38.9728 136.202 38.9812C136.172 38.9896 136.145 39.0076 136.126 39.0325C136.107 39.0573 136.096 39.0877 136.096 39.119V45.7835C136.096 45.822 136.08 45.8589 136.053 45.8861C136.026 45.9134 135.989 45.9287 135.951 45.9287H131.072C131.034 45.9287 130.997 45.9134 130.969 45.8861C130.942 45.8589 130.927 45.822 130.927 45.7835V29.2477C130.927 29.2092 130.942 29.1723 130.969 29.1451C130.997 29.1179 131.034 29.1026 131.072 29.1026H135.559C135.585 29.102 135.61 29.1082 135.632 29.1206C135.655 29.133 135.673 29.151 135.687 29.173L140.882 37.729C140.895 37.7509 140.913 37.7691 140.935 37.7817C140.957 37.7943 140.982 37.801 141.007 37.801C141.033 37.801 141.057 37.7943 141.079 37.7817C141.101 37.7691 141.12 37.7509 141.133 37.729L146.209 29.173C146.222 29.151 146.241 29.133 146.263 29.1206C146.286 29.1082 146.311 29.102 146.336 29.1026H150.766C150.805 29.1026 150.842 29.1179 150.869 29.1451C150.896 29.1723 150.911 29.2092 150.911 29.2477L151.013 45.7835C151.013 45.822 150.997 45.8589 150.97 45.8861C150.943 45.9134 150.906 45.9287 150.867 45.9287H145.91C145.871 45.9287 145.834 45.9134 145.807 45.8861C145.78 45.8589 145.765 45.822 145.765 45.7835L145.787 38.9343C145.788 38.9015 145.778 38.8693 145.759 38.8428C145.739 38.8164 145.712 38.7973 145.68 38.7886C145.648 38.7799 145.615 38.7822 145.585 38.7951C145.554 38.808 145.529 38.8307 145.514 38.8595Z" fill="white"/>
<path d="M159.3 41.9734V45.5982C159.3 45.8181 159.19 45.9281 158.97 45.9281H153.802C153.655 45.9281 153.582 45.8548 153.582 45.7081V29.3264C153.582 29.2704 153.604 29.2166 153.644 29.177C153.683 29.1374 153.737 29.1152 153.793 29.1152C156.579 29.0829 159.394 29.0888 162.239 29.1328C171.107 29.2736 171.899 40.6845 163.273 41.6743C162.63 41.7476 161.384 41.7711 159.534 41.7447C159.378 41.7417 159.3 41.818 159.3 41.9734ZM159.305 33.7033L159.296 37.2225C159.296 37.2517 159.308 37.2797 159.328 37.3003C159.349 37.3209 159.377 37.3325 159.406 37.3325L161.667 37.3413C162.148 37.3425 162.61 37.1608 162.951 36.8359C163.293 36.5109 163.486 36.0694 163.488 35.6081V35.3529C163.489 35.1238 163.443 34.8968 163.353 34.6847C163.262 34.4727 163.129 34.2798 162.961 34.1172C162.792 33.9545 162.592 33.8253 162.372 33.737C162.151 33.6486 161.915 33.6028 161.676 33.6022L159.415 33.5934C159.386 33.5934 159.358 33.6049 159.337 33.6256C159.316 33.6462 159.305 33.6742 159.305 33.7033Z" fill="white"/>
<path d="M181.339 42.9593H175.519C175.461 42.9591 175.404 42.9767 175.356 43.0097C175.308 43.0428 175.272 43.0896 175.251 43.1441L174.283 45.7439C174.263 45.7983 174.226 45.8452 174.178 45.8782C174.13 45.9112 174.073 45.9288 174.015 45.9286H168.762C168.715 45.9282 168.669 45.9161 168.627 45.8933C168.586 45.8706 168.551 45.8379 168.525 45.7983C168.499 45.7586 168.484 45.7132 168.48 45.6661C168.476 45.619 168.484 45.5716 168.503 45.5283L175.607 29.2741C175.63 29.2228 175.667 29.1792 175.713 29.1487C175.76 29.1182 175.815 29.1022 175.871 29.1025H181.088C181.144 29.1022 181.199 29.1182 181.246 29.1487C181.293 29.1792 181.33 29.2228 181.352 29.2741L188.448 45.5283C188.467 45.5716 188.475 45.619 188.471 45.6661C188.467 45.7132 188.451 45.7586 188.426 45.7983C188.4 45.8379 188.365 45.8706 188.323 45.8933C188.282 45.9161 188.236 45.9282 188.188 45.9286H182.866C182.807 45.9288 182.75 45.9112 182.703 45.8782C182.655 45.8452 182.618 45.7983 182.597 45.7439L181.607 43.1441C181.587 43.0896 181.55 43.0428 181.502 43.0097C181.454 42.9767 181.397 42.9591 181.339 42.9593ZM177.024 38.5999C177.016 38.6212 177.013 38.644 177.016 38.6665C177.019 38.6889 177.028 38.7103 177.04 38.7289C177.053 38.7474 177.071 38.7626 177.091 38.7731C177.111 38.7836 177.133 38.7891 177.156 38.7891L179.729 38.7759C179.752 38.7761 179.775 38.7707 179.796 38.7599C179.816 38.7492 179.834 38.7336 179.847 38.7144C179.86 38.6953 179.868 38.6732 179.871 38.6502C179.873 38.6271 179.87 38.6038 179.861 38.5823L178.555 35.2391C178.545 35.2122 178.527 35.1889 178.503 35.1725C178.479 35.1561 178.451 35.1473 178.423 35.1473C178.394 35.1473 178.366 35.1561 178.342 35.1725C178.319 35.1889 178.301 35.2122 178.291 35.2391L177.024 38.5999Z" fill="white"/>
<path d="M194.932 38.8199V45.7923C194.932 45.8284 194.918 45.8631 194.892 45.8887C194.866 45.9143 194.832 45.9286 194.796 45.9286H189.46C189.423 45.9286 189.389 45.9143 189.363 45.8887C189.338 45.8631 189.323 45.8284 189.323 45.7923V29.2389C189.323 29.2027 189.338 29.1681 189.363 29.1425C189.389 29.1169 189.423 29.1025 189.46 29.1025H193.991C194.011 29.1023 194.031 29.1066 194.049 29.1149C194.067 29.1233 194.083 29.1356 194.096 29.1509L200.096 36.3345C200.114 36.3564 200.139 36.3722 200.166 36.3797C200.193 36.3872 200.222 36.386 200.249 36.3763C200.275 36.3667 200.298 36.349 200.314 36.3257C200.33 36.3025 200.339 36.2748 200.338 36.2465L200.312 29.2389C200.312 29.2027 200.326 29.1681 200.352 29.1425C200.377 29.1169 200.412 29.1025 200.448 29.1025H205.683C205.719 29.1025 205.754 29.1169 205.779 29.1425C205.805 29.1681 205.819 29.2027 205.819 29.2389V45.7923C205.819 45.8284 205.805 45.8631 205.779 45.8887C205.754 45.9143 205.719 45.9286 205.683 45.9286H201.249C201.229 45.9288 201.209 45.9246 201.191 45.9162C201.172 45.9079 201.156 45.8956 201.143 45.8803L195.174 38.7319C195.156 38.71 195.132 38.6942 195.104 38.6867C195.077 38.6792 195.048 38.6804 195.022 38.6901C194.995 38.6997 194.972 38.7174 194.956 38.7407C194.94 38.7639 194.932 38.7916 194.932 38.8199Z" fill="white"/>
<path d="M215.999 34.5661L219.175 29.1906C219.191 29.1639 219.213 29.1417 219.24 29.1263C219.267 29.1109 219.298 29.1027 219.329 29.1026H224.506C224.538 29.1027 224.569 29.1113 224.597 29.1274C224.624 29.1435 224.647 29.1666 224.662 29.1943C224.678 29.222 224.686 29.2533 224.686 29.2851C224.685 29.3169 224.677 29.348 224.66 29.3753L218.493 39.8053C218.476 39.8331 218.467 39.8651 218.467 39.8977V45.7483C218.467 45.7961 218.448 45.842 218.414 45.8758C218.38 45.9097 218.334 45.9287 218.286 45.9287H212.928C212.88 45.9287 212.834 45.9097 212.801 45.8758C212.767 45.842 212.748 45.7961 212.748 45.7483V39.7921C212.748 39.7595 212.738 39.7275 212.721 39.6997L206.545 29.3753C206.529 29.348 206.52 29.3169 206.52 29.2851C206.519 29.2533 206.527 29.222 206.543 29.1943C206.559 29.1666 206.581 29.1435 206.609 29.1274C206.636 29.1113 206.667 29.1027 206.699 29.1026H212.387C212.419 29.102 212.45 29.1098 212.478 29.1252C212.506 29.1407 212.529 29.1632 212.545 29.1906L215.691 34.5661C215.707 34.5925 215.729 34.6143 215.756 34.6294C215.783 34.6446 215.814 34.6525 215.845 34.6525C215.876 34.6525 215.906 34.6446 215.933 34.6294C215.96 34.6143 215.983 34.5925 215.999 34.5661Z" fill="white"/>
<path d="M74.6243 39.9232C74.6368 39.9014 74.656 39.8845 74.6791 39.8752C74.7022 39.8659 74.7279 39.8647 74.7523 39.8716C74.7767 39.8786 74.7984 39.8934 74.8142 39.9138C74.83 39.9342 74.839 39.9591 74.8399 39.9848V74.5211C74.8399 74.5795 74.8167 74.6354 74.7754 74.6767C74.7342 74.7179 74.6783 74.7411 74.6199 74.7411H40.1055C40.0787 74.7399 40.0529 74.7304 40.0319 74.7137C40.0108 74.6971 39.9955 74.6742 39.9882 74.6484C39.9809 74.6225 39.9819 74.5951 39.9912 74.5699C40.0004 74.5446 40.0173 74.523 40.0396 74.5079C54.2541 65.666 65.7824 54.1377 74.6243 39.9232ZM69.4071 55.6011C65.1724 60.6775 60.5051 65.3185 55.4052 69.5239C55.3815 69.5446 55.3645 69.5722 55.3565 69.6027C55.3485 69.6333 55.3499 69.6654 55.3605 69.6947C55.371 69.724 55.3903 69.7491 55.4156 69.7666C55.4409 69.784 55.4711 69.793 55.502 69.7922H69.6711C69.8177 69.7922 69.891 69.7189 69.891 69.5723V55.5043C69.8906 55.4675 69.8805 55.4314 69.8618 55.3996C69.8431 55.3679 69.8164 55.3416 69.7844 55.3234C69.7523 55.3051 69.7161 55.2956 69.6792 55.2957C69.6424 55.2958 69.6062 55.3056 69.5743 55.324C69.501 55.368 69.4599 55.4252 69.4511 55.4956C69.4483 55.5352 69.4329 55.5724 69.4071 55.6011Z" fill="white"/>
<path d="M128.573 68.767C125.986 68.1687 120.598 67.5045 120.197 64.0117C119.309 56.2299 129.343 56.4278 134.045 58.6537C134.186 58.7182 134.227 58.8224 134.169 58.9661L132.695 62.5292C132.673 62.5835 132.639 62.6326 132.597 62.6735C132.555 62.7145 132.505 62.7464 132.451 62.7674C132.396 62.7884 132.337 62.798 132.279 62.7957C132.22 62.7933 132.163 62.779 132.11 62.7536C130.592 62.0234 127.5 61.038 125.978 62.1377C125.884 62.2048 125.811 62.296 125.765 62.4015C125.72 62.5071 125.704 62.623 125.719 62.7369C125.735 62.8508 125.781 62.9584 125.853 63.0481C125.925 63.1379 126.019 63.2064 126.127 63.2463C128.182 64.0161 130.341 64.1525 132.242 64.9575C135.805 66.4663 135.664 71.1996 132.774 73.2803C129.4 75.7086 123.571 74.8772 120.123 73.2671C119.885 73.1557 119.819 72.9812 119.925 72.7437L121.561 69.0485C121.573 69.0209 121.591 68.9961 121.613 68.9758C121.635 68.9555 121.662 68.94 121.69 68.9305C121.719 68.921 121.749 68.9175 121.779 68.9204C121.809 68.9233 121.838 68.9325 121.865 68.9473C123.873 70.0383 126.01 70.4884 128.274 70.2978C129.007 70.2392 129.316 69.943 129.202 69.4092C129.169 69.2529 129.093 69.1094 128.981 68.9955C128.87 68.8817 128.728 68.8024 128.573 68.767Z" fill="white"/>
<path d="M155.781 69.5634V65.7231C155.781 65.6648 155.804 65.6088 155.845 65.5676C155.887 65.5264 155.943 65.5032 156.001 65.5032H160.563C160.747 65.5032 160.84 65.5941 160.84 65.7759V72.4316C160.84 72.4934 160.824 72.5539 160.794 72.6071C160.764 72.6603 160.72 72.7044 160.668 72.7351C157.137 74.873 153.529 75.3598 149.842 74.1956C144.467 72.4976 142.483 65.5296 145.65 61.0822C149.152 56.1641 157.021 56.0938 161.139 60.264C161.17 60.2953 161.194 60.3328 161.21 60.374C161.226 60.4153 161.234 60.4595 161.232 60.5039C161.231 60.5484 161.22 60.5922 161.201 60.6326C161.182 60.673 161.155 60.7093 161.121 60.7391L157.787 63.6424C157.678 63.7362 157.576 63.7304 157.479 63.6248C155.205 61.1746 150.885 61.2274 150.036 65.0017C149.235 68.5561 152.231 71.0635 155.609 69.8098C155.724 69.7687 155.781 69.6866 155.781 69.5634Z" fill="white"/>
<path d="M98.8846 57.6953H93.685C93.5417 57.6953 93.4255 57.8115 93.4255 57.9549V74.1519C93.4255 74.2952 93.5417 74.4114 93.685 74.4114H98.8846C99.028 74.4114 99.1442 74.2952 99.1442 74.1519V57.9549C99.1442 57.8115 99.028 57.6953 98.8846 57.6953Z" fill="white"/>
<path d="M112.68 64.7205L112.667 57.8273C112.667 57.7923 112.681 57.7587 112.705 57.734C112.73 57.7092 112.764 57.6953 112.799 57.6953H118.148C118.183 57.6953 118.216 57.7092 118.241 57.734C118.266 57.7587 118.28 57.7923 118.28 57.8273V74.2795C118.28 74.3145 118.266 74.348 118.241 74.3728C118.216 74.3975 118.183 74.4114 118.148 74.4114H113.613C113.593 74.4113 113.574 74.4069 113.557 74.3985C113.539 74.3902 113.524 74.378 113.511 74.363L107.516 67.1795C107.498 67.1588 107.475 67.1439 107.449 67.1369C107.423 67.1298 107.395 67.1309 107.37 67.14C107.344 67.1491 107.322 67.1658 107.307 67.1878C107.291 67.2098 107.283 67.2361 107.282 67.2631V74.2795C107.282 74.2968 107.279 74.314 107.272 74.33C107.266 74.346 107.256 74.3605 107.244 74.3728C107.232 74.385 107.217 74.3948 107.201 74.4014C107.185 74.408 107.168 74.4114 107.15 74.4114H101.916C101.881 74.4114 101.847 74.3975 101.822 74.3728C101.798 74.348 101.784 74.3145 101.784 74.2795V57.8273C101.784 57.7923 101.798 57.7587 101.822 57.734C101.847 57.7092 101.881 57.6953 101.916 57.6953H106.451C106.47 57.6955 106.49 57.6999 106.507 57.7082C106.524 57.7166 106.54 57.7287 106.552 57.7437L112.447 64.8041C112.464 64.8248 112.487 64.8396 112.513 64.8467C112.54 64.8538 112.567 64.8527 112.593 64.8436C112.618 64.8345 112.64 64.8178 112.656 64.7958C112.671 64.7738 112.68 64.7475 112.68 64.7205Z" fill="white"/>
<path d="M141.995 57.6953H136.795C136.652 57.6953 136.536 57.8115 136.536 57.9549V74.1519C136.536 74.2952 136.652 74.4114 136.795 74.4114H141.995C142.138 74.4114 142.254 74.2952 142.254 74.1519V57.9549C142.254 57.8115 142.138 57.6953 141.995 57.6953Z" fill="white"/>
<path d="M168.991 63.524H173.694C173.756 63.524 173.815 63.4994 173.859 63.4557C173.902 63.4119 173.927 63.3526 173.927 63.2908V57.9285C173.927 57.8666 173.952 57.8073 173.995 57.7636C174.039 57.7199 174.098 57.6953 174.16 57.6953H179.413C179.474 57.6953 179.534 57.7199 179.577 57.7636C179.621 57.8073 179.646 57.8666 179.646 57.9285V74.1783C179.646 74.2401 179.621 74.2994 179.577 74.3431C179.534 74.3869 179.474 74.4114 179.413 74.4114H174.16C174.098 74.4114 174.039 74.3869 173.995 74.3431C173.952 74.2994 173.927 74.2401 173.927 74.1783V68.486C173.927 68.4242 173.902 68.3649 173.859 68.3212C173.815 68.2774 173.756 68.2529 173.694 68.2529H168.991C168.93 68.2529 168.87 68.2774 168.826 68.3212C168.783 68.3649 168.758 68.4242 168.758 68.486V74.1783C168.758 74.2401 168.734 74.2994 168.69 74.3431C168.646 74.3869 168.587 74.4114 168.525 74.4114H163.273C163.211 74.4114 163.152 74.3869 163.108 74.3431C163.064 74.2994 163.04 74.2401 163.04 74.1783V57.9285C163.04 57.8666 163.064 57.8073 163.108 57.7636C163.152 57.7199 163.211 57.6953 163.273 57.6953H168.525C168.587 57.6953 168.646 57.7199 168.69 57.7636C168.734 57.8073 168.758 57.8666 168.758 57.9285V63.2908C168.758 63.3526 168.783 63.4119 168.826 63.4557C168.87 63.4994 168.93 63.524 168.991 63.524Z" fill="white"/>
<path d="M185.549 62.0943H181.22C181.153 62.0943 181.088 62.0674 181.04 62.0196C180.992 61.9717 180.965 61.9068 180.965 61.8392V57.9504C180.965 57.8828 180.992 57.8179 181.04 57.77C181.088 57.7222 181.153 57.6953 181.22 57.6953H196.107C196.174 57.6953 196.239 57.7222 196.287 57.77C196.335 57.8179 196.362 57.8828 196.362 57.9504V61.8392C196.362 61.9068 196.335 61.9717 196.287 62.0196C196.239 62.0674 196.174 62.0943 196.107 62.0943H191.778C191.71 62.0943 191.645 62.1212 191.598 62.169C191.55 62.2169 191.523 62.2818 191.523 62.3494V74.1563C191.523 74.224 191.496 74.2888 191.448 74.3367C191.4 74.3845 191.335 74.4114 191.268 74.4114H186.059C185.992 74.4114 185.927 74.3845 185.879 74.3367C185.831 74.2888 185.804 74.224 185.804 74.1563V62.3494C185.804 62.2818 185.777 62.2169 185.729 62.169C185.682 62.1212 185.617 62.0943 185.549 62.0943Z" fill="white"/>
<path d="M47.817 44.5509C41.5704 53.6436 27.221 50.5379 25.3734 39.5625C24.1197 32.1414 29.0773 26.4227 36.4016 25.0282C36.4537 25.0181 36.5076 25.0226 36.5572 25.0413C36.6068 25.06 36.6503 25.0922 36.6827 25.1342C36.7151 25.1762 36.7352 25.2264 36.7407 25.2791C36.7462 25.3319 36.737 25.3851 36.714 25.4329C33.7974 31.5343 43.6819 33.637 43.462 26.8362C43.4503 26.4814 43.5896 26.4066 43.8799 26.6119C49.9681 30.9405 52.1192 38.2912 47.817 44.5509Z" fill="white"/>
</g>
</svg>
