<svg width="136" height="61" viewBox="0 0 136 61" fill="none" xmlns="http://www.w3.org/2000/svg">
<path d="M98.1885 30.2514V32.844C98.1885 32.8541 98.1925 32.8637 98.1997 32.8708C98.2068 32.878 98.2164 32.882 98.2265 32.882H114.668C114.678 32.882 114.688 32.8859 114.695 32.8931C114.702 32.9002 114.706 32.9098 114.706 32.9199V35.9334C114.706 35.9435 114.702 35.9531 114.695 35.9602C114.688 35.9673 114.678 35.9713 114.668 35.9713H95.1677C95.1576 35.9713 95.148 35.9673 95.1409 35.9602C95.1338 35.9531 95.1298 35.9435 95.1298 35.9334V21.4188C95.1298 21.4088 95.1338 21.3991 95.1409 21.392C95.148 21.3849 95.1576 21.3809 95.1677 21.3809H114.668C114.678 21.3809 114.688 21.3849 114.695 21.392C114.702 21.3991 114.706 21.4088 114.706 21.4188V24.4067C114.706 24.4167 114.702 24.4264 114.695 24.4335C114.688 24.4406 114.678 24.4446 114.668 24.4446L98.2265 24.4776C98.2164 24.4776 98.2068 24.4816 98.1997 24.4887C98.1925 24.4959 98.1885 24.5055 98.1885 24.5156V27.0935C98.1885 27.1036 98.1925 27.1132 98.1997 27.1203C98.2068 27.1274 98.2164 27.1314 98.2265 27.1314H111.577C111.588 27.1314 111.597 27.1354 111.604 27.1425C111.611 27.1497 111.615 27.1593 111.615 27.1694L111.618 30.1437C111.618 30.1538 111.614 30.1634 111.607 30.1705C111.6 30.1777 111.59 30.1817 111.58 30.1817L98.2265 30.2135C98.2164 30.2135 98.2068 30.2175 98.1997 30.2246C98.1925 30.2317 98.1885 30.2413 98.1885 30.2514Z" fill="white"/>
<path d="M119.486 24.529L119.512 32.811C119.513 32.8583 119.536 32.882 119.583 32.882H135.95C135.98 32.882 135.995 32.8975 135.995 32.9284L135.999 35.9126C135.999 35.9518 135.979 35.9713 135.939 35.9713H116.48C116.439 35.9713 116.419 35.9509 116.419 35.9102V21.4421C116.419 21.4013 116.439 21.3809 116.48 21.3809H135.93C135.974 21.3809 135.995 21.4025 135.995 21.4458L136 24.4042C136 24.4103 135.999 24.4163 135.997 24.4218C135.994 24.4274 135.991 24.4325 135.986 24.4367C135.982 24.4409 135.977 24.4442 135.971 24.4464C135.966 24.4486 135.96 24.4497 135.954 24.4495C132.108 24.4307 128.296 24.4368 124.517 24.4678C122.868 24.4817 121.228 24.4658 119.598 24.4201C119.583 24.4198 119.569 24.4224 119.555 24.4277C119.542 24.433 119.529 24.441 119.519 24.4511C119.509 24.4613 119.5 24.4734 119.495 24.4868C119.489 24.5001 119.486 24.5145 119.486 24.529Z" fill="white"/>
<path d="M93.4168 32.2702V35.9322C93.4168 35.9426 93.4127 35.9525 93.4053 35.9599C93.398 35.9672 93.388 35.9713 93.3777 35.9713H73.8785C73.8681 35.9713 73.8582 35.9672 73.8508 35.9599C73.8435 35.9525 73.8394 35.9426 73.8394 35.9322L73.8406 21.4201C73.8406 21.4097 73.8447 21.3997 73.8521 21.3924C73.8594 21.385 73.8693 21.3809 73.8797 21.3809H93.3777C93.388 21.3809 93.398 21.385 93.4053 21.3924C93.4127 21.3997 93.4168 21.4097 93.4168 21.4201V25.0502C93.4167 25.0603 93.4128 25.0699 93.4058 25.0772L89.8527 28.6364C89.8489 28.64 89.8459 28.6444 89.8439 28.6492C89.8418 28.6541 89.8408 28.6592 89.8408 28.6645C89.8408 28.6697 89.8418 28.6749 89.8439 28.6798C89.8459 28.6846 89.8489 28.689 89.8527 28.6926L93.4058 32.2433C93.4128 32.2505 93.4167 32.2601 93.4168 32.2702ZM88.8005 25.3427C88.995 25.1457 89.3658 24.8459 89.597 24.5302C89.6239 24.4944 89.6149 24.476 89.5701 24.4752L76.9801 24.4581C76.9034 24.4581 76.8655 24.4964 76.8663 24.5731L76.8945 27.0837C76.8953 27.1155 76.9116 27.1314 76.9434 27.1314H86.9359C86.9807 27.1314 87.0195 27.1155 87.0521 27.0837C87.6402 26.5095 88.223 25.9291 88.8005 25.3427ZM87.0068 30.2184C87.003 30.2144 86.9984 30.2113 86.9934 30.2092C86.9883 30.2071 86.9829 30.2061 86.9775 30.2061L76.9361 30.2171C76.9254 30.2171 76.9151 30.2214 76.9075 30.229C76.8999 30.2365 76.8957 30.2468 76.8957 30.2575L76.8859 32.8416C76.8859 32.8523 76.8902 32.8626 76.8977 32.8701C76.9053 32.8777 76.9156 32.882 76.9263 32.882H89.5725C89.5805 32.882 89.5883 32.8798 89.595 32.8754C89.6017 32.871 89.6069 32.8648 89.6101 32.8575C89.6132 32.8502 89.6141 32.8421 89.6126 32.8342C89.6112 32.8264 89.6075 32.8192 89.6019 32.8134L87.0068 30.2184Z" fill="white"/>
<path d="M65.5718 0H63.8785C63.8393 0 63.8075 0.0317718 63.8075 0.0709641V57.9236C63.8075 57.9628 63.8393 57.9946 63.8785 57.9946H65.5718C65.611 57.9946 65.6428 57.9628 65.6428 57.9236V0.0709641C65.6428 0.0317718 65.611 0 65.5718 0Z" fill="#F5A020"/>
<path d="M36.5136 8.96102L36.1821 9.1788C36.1394 9.20679 36.0881 9.21838 36.0379 9.2114C35.9876 9.20441 35.9419 9.17933 35.9092 9.14088C35.5381 8.70857 35.2497 8.2261 35.0442 7.69346C34.9904 7.55398 35.0373 7.47364 35.1849 7.45243C35.4736 7.40961 35.6768 7.13798 35.6939 6.84434C35.7298 6.25542 35.4369 5.92507 34.8154 5.85329C34.7902 5.8502 34.7672 5.8377 34.751 5.81835C34.7349 5.799 34.7268 5.77429 34.7285 5.7493C34.7669 5.14733 34.8978 4.56616 35.1213 4.00579C35.1376 3.96419 35.1678 3.94543 35.2118 3.94951C35.3382 3.96011 35.461 3.97846 35.5801 4.00456C36.1405 4.12447 36.5246 3.75007 36.4561 3.18726C36.4341 3.00862 36.2995 2.86669 36.2078 2.71987C36.167 2.6538 36.1743 2.59385 36.2298 2.54002C36.6629 2.11913 37.1666 1.81243 37.7408 1.61993C37.7824 1.60607 37.8183 1.61504 37.8485 1.64685C38.0479 1.85607 38.1054 2.08976 38.3709 2.19376C39.1295 2.48985 39.384 2.00657 39.5528 1.37156C39.5659 1.32344 39.5973 1.30101 39.6471 1.30427C40.2604 1.33771 40.849 1.47637 41.4126 1.72026C41.4566 1.73984 41.4738 1.77328 41.464 1.82059C41.415 2.05184 41.3025 2.28063 41.3661 2.50576C41.5631 3.20928 42.1871 3.10283 42.6691 2.76514C42.6914 2.74977 42.7186 2.74315 42.7454 2.74653C42.7723 2.74992 42.797 2.76308 42.8147 2.7835C43.2185 3.24762 43.5435 3.76231 43.7899 4.32757C43.7963 4.34236 43.7994 4.35835 43.7991 4.37444C43.7988 4.39053 43.795 4.40634 43.788 4.42076C43.781 4.43519 43.771 4.44789 43.7587 4.458C43.7463 4.4681 43.7319 4.47536 43.7165 4.47929C42.7462 4.73133 42.9848 6.12247 43.9404 6.10289C43.9612 6.1024 43.9819 6.10639 44.0011 6.1146C44.0203 6.1228 44.0375 6.13504 44.0515 6.15047C44.0656 6.1659 44.0761 6.18417 44.0825 6.20403C44.0888 6.2239 44.0909 6.2449 44.0884 6.26562C44.0183 6.86269 43.8702 7.43775 43.6443 7.99077C43.6263 8.03564 43.5937 8.05236 43.5464 8.04094C43.0178 7.91369 42.4318 7.9039 42.3449 8.58418C42.3082 8.87293 42.4709 9.08949 42.6471 9.30605C42.6773 9.34276 42.6748 9.37742 42.6398 9.41005C42.1773 9.84644 41.6455 10.1707 41.0443 10.3827C41.0241 10.3899 41.002 10.389 40.9827 10.38C40.9634 10.3711 40.9486 10.3549 40.9415 10.335C40.8396 10.0536 40.6532 9.85582 40.3824 9.74162C40.3359 9.72123 40.3065 9.73591 40.2943 9.78567L35.9349 26.8488C35.9328 26.8575 35.9343 26.8668 35.9391 26.8746C35.9439 26.8823 35.9516 26.888 35.9606 26.8904L42.4477 28.5764C42.4925 28.5878 42.5093 28.616 42.4978 28.6608L41.5778 32.2164C41.5754 32.2244 41.5701 32.2312 41.563 32.2353C41.5559 32.2395 41.5476 32.2405 41.5398 32.2384L31.403 29.6152C31.3549 29.6029 31.3369 29.5728 31.3492 29.5246L36.5956 9.01853C36.5981 9.00803 36.5974 8.99701 36.5936 8.98691C36.5898 8.97682 36.583 8.9681 36.5742 8.9619C36.5653 8.9557 36.5548 8.9523 36.544 8.95214C36.5332 8.95199 36.5227 8.95508 36.5136 8.96102ZM41.6071 5.99522C41.6071 5.41275 41.3757 4.85414 40.9639 4.44227C40.552 4.0304 39.9934 3.79901 39.4109 3.79901C38.8284 3.79901 38.2698 4.0304 37.858 4.44227C37.4461 4.85414 37.2147 5.41275 37.2147 5.99522C37.2147 6.57769 37.4461 7.13631 37.858 7.54818C38.2698 7.96004 38.8284 8.19143 39.4109 8.19143C39.9934 8.19143 40.552 7.96004 40.9639 7.54818C41.3757 7.13631 41.6071 6.57769 41.6071 5.99522Z" fill="#F5A020"/>
<path d="M25.3771 14.1145L23.5822 20.5917C23.5788 20.6036 23.5708 20.6136 23.56 20.6196C23.5492 20.6255 23.5365 20.627 23.5247 20.6236L14.5184 18.1594C14.5124 18.1578 14.5068 18.1551 14.5019 18.1514C14.497 18.1476 14.4929 18.1429 14.4898 18.1376C14.4867 18.1322 14.4848 18.1263 14.484 18.1202C14.4832 18.1141 14.4837 18.1078 14.4854 18.1019L15.3883 14.7972C15.3899 14.7912 15.3926 14.7856 15.3964 14.7807C15.4001 14.7758 15.4048 14.7717 15.4101 14.7686C15.4155 14.7655 15.4214 14.7636 15.4275 14.7628C15.4337 14.762 15.4399 14.7625 15.4458 14.7642L20.543 16.1577C20.5489 16.1594 20.5551 16.1599 20.5613 16.1591C20.5674 16.1583 20.5733 16.1563 20.5787 16.1533C20.584 16.1502 20.5887 16.1461 20.5924 16.1412C20.5962 16.1363 20.5989 16.1307 20.6005 16.1247L22.3917 9.64252C22.3951 9.63095 22.4029 9.62117 22.4134 9.61523C22.4239 9.6093 22.4363 9.60767 22.448 9.61071L32.4233 12.2829C32.4351 12.2863 32.4451 12.2943 32.4511 12.305C32.4571 12.3158 32.4585 12.3285 32.4551 12.3404L31.5913 15.6414C31.5898 15.6474 31.587 15.653 31.5833 15.6579C31.5795 15.6628 31.5748 15.6669 31.5695 15.67C31.5641 15.6731 31.5582 15.675 31.5521 15.6758C31.546 15.6766 31.5398 15.6761 31.5338 15.6744L25.4334 14.0814C25.4215 14.0784 25.409 14.0802 25.3985 14.0864C25.3879 14.0926 25.3803 14.1027 25.3771 14.1145Z" fill="#F5A020"/>
<path d="M43.9537 21.8862L50.4212 23.6444C50.4357 23.6484 50.4481 23.658 50.4556 23.671C50.4632 23.6841 50.4653 23.6996 50.4615 23.7142L47.8371 33.6736C47.8331 33.6881 47.8235 33.7005 47.8105 33.708C47.7974 33.7156 47.782 33.7177 47.7674 33.7139L44.4822 32.8722C44.4748 32.8703 44.4678 32.867 44.4617 32.8624C44.4555 32.8578 44.4504 32.852 44.4465 32.8454C44.4426 32.8388 44.4401 32.8315 44.4391 32.8239C44.4381 32.8163 44.4386 32.8086 44.4406 32.8012L46.0043 26.7154C46.008 26.7008 46.0059 26.6854 45.9984 26.6723C45.9908 26.6593 45.9784 26.6497 45.9639 26.6457L39.4952 24.8851C39.4807 24.881 39.4683 24.8715 39.4607 24.8584C39.4532 24.8454 39.4511 24.8299 39.4548 24.8153L41.8774 15.82C41.8814 15.8055 41.8909 15.7931 41.904 15.7856C41.917 15.778 41.9325 15.7759 41.9471 15.7797L45.2408 16.663C45.2553 16.6671 45.2677 16.6766 45.2753 16.6897C45.2828 16.7027 45.2849 16.7182 45.2812 16.7328L43.9133 21.8165C43.9096 21.8311 43.9117 21.8466 43.9192 21.8596C43.9268 21.8727 43.9391 21.8822 43.9537 21.8862Z" fill="#F5A020"/>
<path d="M3.50433 16.7891C4.1222 17.0582 4.77188 16.7805 4.83184 16.0611C4.83365 16.0388 4.83994 16.0172 4.85035 15.9975C4.86075 15.9777 4.87504 15.9604 4.89233 15.9464C4.90963 15.9324 4.92958 15.9221 4.95094 15.9162C4.97231 15.9102 4.99465 15.9087 5.01659 15.9118C5.58593 15.9877 6.1361 16.1329 6.66711 16.3474C6.7017 16.3615 6.72938 16.3887 6.74424 16.4229C6.7591 16.4572 6.75996 16.496 6.74664 16.5309C6.52885 17.1047 6.79191 17.7361 7.48197 17.6688C7.53173 17.6639 7.57781 17.6484 7.62023 17.6223L8.02154 17.3678C8.0404 17.3559 8.06285 17.3509 8.08498 17.3538C8.10711 17.3567 8.12753 17.3673 8.14267 17.3837C8.55948 17.8413 8.87148 18.3609 9.07866 18.9425C9.09334 18.9849 9.08273 19.0191 9.04684 19.0452C8.80826 19.2165 8.52563 19.3009 8.45344 19.6447C8.44447 19.6872 8.46119 19.7141 8.5036 19.7255L25.4921 24.1387C25.5123 24.1439 25.5338 24.1407 25.5519 24.1299C25.57 24.1192 25.5832 24.1017 25.5888 24.0812L27.2919 17.6345C27.294 17.6265 27.2977 17.6191 27.3027 17.6125C27.3078 17.606 27.3141 17.6005 27.3212 17.5964C27.3284 17.5923 27.3363 17.5897 27.3445 17.5886C27.3527 17.5876 27.361 17.5882 27.369 17.5905L30.9025 18.524C30.9164 18.5277 30.9283 18.5368 30.9356 18.5494C30.9429 18.5619 30.9451 18.577 30.9416 18.5913L28.2707 28.7318C28.2684 28.7402 28.2629 28.7474 28.2553 28.7517C28.2477 28.7561 28.2388 28.7573 28.2303 28.755L7.69608 23.4156C7.68648 23.4133 7.67636 23.4139 7.66706 23.4173C7.65776 23.4208 7.64973 23.4269 7.64402 23.4348C7.63832 23.4428 7.63521 23.4522 7.63511 23.4619C7.63501 23.4716 7.63793 23.4811 7.64347 23.489L7.85759 23.8145C7.888 23.861 7.90032 23.917 7.89219 23.9718C7.88407 24.0267 7.85608 24.0765 7.81354 24.1118C7.37634 24.4764 6.89183 24.7603 6.36001 24.9634C6.33875 24.9716 6.31595 24.9752 6.29317 24.9738C6.27038 24.9724 6.24813 24.9661 6.22794 24.9553C6.20775 24.9445 6.19008 24.9295 6.17614 24.9112C6.16219 24.893 6.15229 24.872 6.14712 24.8496C5.95625 24.0396 4.91626 24.1644 4.60793 24.8324C4.56389 24.9267 4.57245 25.1028 4.50149 25.2154C4.47702 25.2537 4.44235 25.2713 4.39749 25.268C3.80612 25.2199 3.23556 25.0853 2.68579 24.8643C2.66692 24.8565 2.65115 24.8429 2.64096 24.8254C2.63077 24.8079 2.62674 24.7875 2.62951 24.7676C2.66989 24.4911 2.76777 24.1864 2.65643 23.9332C2.38603 23.3165 1.80976 23.478 1.37296 23.8059C1.33544 23.8345 1.30037 23.832 1.26774 23.7986C0.823197 23.3442 0.500188 22.8153 0.298716 22.2117C0.285665 22.1717 0.297901 22.1419 0.335422 22.1224C0.852968 21.8544 1.23593 21.2108 0.767322 20.7263C0.588689 20.5428 0.319516 20.478 0.0662488 20.407C0.0462025 20.4012 0.0287308 20.3888 0.016719 20.3719C0.00470724 20.355 -0.00112589 20.3346 0.000179866 20.314C0.0385167 19.6982 0.18126 19.108 0.42841 18.5436C0.436713 18.5253 0.451854 18.5109 0.470601 18.5036C0.489348 18.4963 0.510213 18.4966 0.528737 18.5044C1.16986 18.7822 1.92844 18.5338 1.70943 17.6994C1.67272 17.5587 1.54915 17.4534 1.49531 17.325C1.46106 17.2458 1.47696 17.1786 1.54303 17.1231C2.00144 16.7397 2.50512 16.4289 3.05407 16.1908C3.09485 16.1728 3.12585 16.1834 3.14706 16.2226L3.404 16.6973C3.42684 16.7389 3.46028 16.7695 3.50433 16.7891ZM6.88367 20.5844C6.88367 20.0019 6.65229 19.4433 6.24042 19.0315C5.82855 18.6196 5.26993 18.3882 4.68746 18.3882C4.39905 18.3882 4.11347 18.445 3.84701 18.5554C3.58055 18.6657 3.33845 18.8275 3.13451 19.0315C2.93057 19.2354 2.7688 19.4775 2.65843 19.744C2.54806 20.0104 2.49126 20.296 2.49126 20.5844C2.49126 20.8728 2.54806 21.1584 2.65843 21.4249C2.7688 21.6913 2.93057 21.9334 3.13451 22.1374C3.33845 22.3413 3.58055 22.5031 3.84701 22.6134C4.11347 22.7238 4.39905 22.7806 4.68746 22.7806C5.26993 22.7806 5.82855 22.5492 6.24042 22.1374C6.65229 21.7255 6.88367 21.1669 6.88367 20.5844Z" fill="#F5A020"/>
<path d="M8.31147 37.5766L11.0154 27.6453C11.0174 27.6378 11.0209 27.6308 11.0256 27.6247C11.0303 27.6185 11.0362 27.6134 11.0429 27.6095C11.0496 27.6056 11.057 27.6031 11.0647 27.6021C11.0724 27.6011 11.0802 27.6017 11.0876 27.6037L14.3654 28.4761C14.3803 28.4801 14.3929 28.4898 14.4007 28.5031C14.4085 28.5163 14.4108 28.5321 14.407 28.547L12.7969 34.6169C12.7948 34.6244 12.7943 34.6322 12.7953 34.6399C12.7963 34.6475 12.7988 34.6549 12.8027 34.6616C12.8065 34.6684 12.8117 34.6742 12.8178 34.6789C12.824 34.6837 12.831 34.6871 12.8385 34.6891L19.2803 36.5011C19.2952 36.5054 19.3078 36.5154 19.3153 36.5289C19.3229 36.5424 19.3248 36.5584 19.3207 36.5733L16.8247 45.5478C16.8204 45.5627 16.8104 45.5753 16.7969 45.5828C16.7834 45.5904 16.7674 45.5923 16.7525 45.5882L13.4735 44.6754C13.4586 44.6711 13.446 44.6612 13.4384 44.6476C13.4309 44.6341 13.429 44.6182 13.4331 44.6032L14.8389 39.5354C14.8431 39.5205 14.8412 39.5045 14.8336 39.491C14.826 39.4775 14.8134 39.4675 14.7985 39.4632L8.35185 37.6488C8.33696 37.6445 8.32436 37.6345 8.3168 37.621C8.30924 37.6075 8.30732 37.5915 8.31147 37.5766Z" fill="#F5A020"/>
<path d="M22.1273 52.4472L22.465 52.2196C22.5024 52.1946 22.5477 52.1842 22.5923 52.1903C22.6369 52.1964 22.6778 52.2186 22.7072 52.2526C23.1012 52.7053 23.3985 53.2151 23.5992 53.782C23.6055 53.7999 23.6079 53.8189 23.6063 53.8379C23.6047 53.8568 23.5991 53.8751 23.5898 53.8917C23.5806 53.9082 23.5679 53.9226 23.5526 53.9339C23.5373 53.9452 23.5198 53.953 23.5013 53.957C22.5188 54.165 22.8345 55.5182 23.7925 55.5574C23.8065 55.558 23.8202 55.5614 23.8328 55.5674C23.8454 55.5734 23.8567 55.5818 23.866 55.5922C23.8752 55.6026 23.8823 55.6147 23.8867 55.6279C23.8911 55.641 23.8927 55.6549 23.8916 55.6687C23.8443 56.2747 23.7056 56.8588 23.4756 57.4208C23.4679 57.4396 23.4542 57.4554 23.4367 57.4656C23.4192 57.4758 23.3989 57.4798 23.3789 57.477C23.1012 57.4403 22.8088 57.3363 22.5518 57.4416C21.9046 57.7083 22.1028 58.2772 22.4075 58.725C22.4191 58.7421 22.4244 58.7627 22.4224 58.7833C22.4204 58.8039 22.4112 58.8231 22.3964 58.8376C21.9503 59.2715 21.4323 59.5896 20.8426 59.7919C20.8002 59.8066 20.7659 59.7956 20.7398 59.7589C20.6138 59.5864 20.5184 59.4151 20.3581 59.294C19.7708 58.8523 19.1272 59.2646 19.0538 59.9339C19.0491 59.9762 19.0282 60.015 18.9955 60.042C18.9628 60.069 18.9209 60.082 18.8788 60.0782C18.2687 60.0293 17.6835 59.8825 17.1231 59.6378C17.0791 59.6182 17.0689 59.5876 17.0925 59.546C17.5672 58.703 16.6875 57.882 16.0024 58.5464C15.9835 58.5648 15.961 58.579 15.9363 58.5881C15.9116 58.5973 15.8852 58.6012 15.8589 58.5996C15.8325 58.5979 15.8068 58.5909 15.7832 58.5788C15.7597 58.5667 15.7389 58.5498 15.7222 58.5293C15.3543 58.0717 15.0488 57.5757 14.8058 57.0415C14.8002 57.0295 14.7972 57.0165 14.7968 57.0033C14.7965 56.9901 14.7988 56.9769 14.8037 56.9645C14.8086 56.9522 14.816 56.9409 14.8254 56.9314C14.8348 56.922 14.846 56.9144 14.8584 56.9093C15.4913 56.6483 15.6663 56.2299 15.3833 55.654C15.2156 55.3114 14.9379 55.2576 14.5892 55.2099C14.5695 55.2071 14.5517 55.1968 14.5395 55.1813C14.5274 55.1657 14.522 55.1461 14.5244 55.1267C14.5929 54.5165 14.7495 53.9305 14.9942 53.3685C15.0022 53.3505 15.016 53.3356 15.0335 53.3261C15.0509 53.3166 15.0711 53.313 15.0908 53.3159C15.7087 53.404 16.3339 53.4676 16.3058 52.5879C16.305 52.5455 16.2923 52.5044 16.2691 52.4692L15.995 52.0508C15.9681 52.01 15.9726 51.9733 16.0085 51.9406C16.4718 51.5149 16.9991 51.198 17.5905 50.99C17.608 50.9839 17.6271 50.9838 17.6447 50.9895C17.6624 50.9953 17.6777 51.0066 17.6884 51.0218C17.8633 51.2787 17.9037 51.5785 18.3001 51.614C18.3327 51.6172 18.3531 51.6029 18.3613 51.5711L22.8516 34.6047C22.8638 34.5598 22.8475 34.5313 22.8027 34.519L16.3743 32.7902C16.3197 32.7755 16.2997 32.7404 16.3144 32.685L17.2528 29.1918C17.2551 29.1834 17.259 29.1754 17.2643 29.1685C17.2697 29.1615 17.2764 29.1557 17.284 29.1514C17.2917 29.1471 17.3001 29.1443 17.3088 29.1433C17.3175 29.1422 17.3263 29.1429 17.3348 29.1453L27.4508 31.8518C27.4599 31.854 27.4677 31.8599 27.4726 31.8682C27.4774 31.8764 27.4788 31.8864 27.4765 31.8958L22.0526 52.3933C22.0499 52.403 22.0502 52.4133 22.0535 52.4228C22.0568 52.4323 22.0629 52.4405 22.0711 52.4464C22.0792 52.4523 22.089 52.4555 22.0991 52.4557C22.1091 52.4558 22.119 52.4528 22.1273 52.4472ZM21.3981 55.3946C21.3981 54.8121 21.1667 54.2535 20.7548 53.8417C20.3429 53.4298 19.7843 53.1984 19.2019 53.1984C18.6194 53.1984 18.0608 53.4298 17.6489 53.8417C17.237 54.2535 17.0056 54.8121 17.0056 55.3946C17.0056 55.9771 17.237 56.5357 17.6489 56.9476C18.0608 57.3594 18.6194 57.5908 19.2019 57.5908C19.7843 57.5908 20.3429 57.3594 20.7548 56.9476C21.1667 56.5357 21.3981 55.9771 21.3981 55.3946Z" fill="#F5A020"/>
<path d="M50.3038 41.6435L33.3544 37.2621C33.3391 37.2583 33.323 37.2605 33.3095 37.2683C33.296 37.2761 33.2862 37.2888 33.2822 37.3037L31.5791 43.7749C31.5751 43.7895 31.5655 43.8019 31.5522 43.8095C31.5389 43.817 31.5231 43.8191 31.5081 43.8153L27.9905 42.8903C27.9408 42.8772 27.9224 42.8458 27.9355 42.7961L30.5783 32.7192C30.5808 32.7094 30.5853 32.7002 30.5914 32.6921C30.5975 32.6841 30.6052 32.6773 30.6139 32.6722C30.6227 32.667 30.6324 32.6637 30.6424 32.6623C30.6525 32.661 30.6627 32.6616 30.6725 32.6642L51.1455 37.9608C51.1547 37.9632 51.1644 37.9632 51.1735 37.9606C51.1826 37.958 51.1909 37.953 51.1974 37.9461C51.204 37.9392 51.2085 37.9307 51.2106 37.9214C51.2126 37.9121 51.2121 37.9025 51.2092 37.8935C51.1296 37.6402 50.7565 37.5007 51.1088 37.2205C51.5297 36.8853 52.0077 36.6145 52.5428 36.4081C52.56 36.4015 52.5785 36.3988 52.5969 36.4002C52.6153 36.4016 52.6331 36.4071 52.6492 36.4162C52.6652 36.4253 52.679 36.4379 52.6896 36.453C52.7002 36.4681 52.7073 36.4854 52.7104 36.5036C52.7667 36.8327 53.0187 37.0615 53.3589 37.0823C53.8964 37.1165 54.2259 36.8237 54.3475 36.2038C54.3525 36.1781 54.3665 36.1552 54.387 36.1392C54.4075 36.1232 54.433 36.1153 54.4588 36.1169C55.0592 36.1528 55.6367 36.287 56.1913 36.5195C56.2321 36.5366 56.2488 36.5672 56.2415 36.6112C56.1485 37.1471 56.0604 37.7882 56.7994 37.8653C57.0808 37.8947 57.2717 37.7356 57.4895 37.5717C57.5072 37.558 57.5294 37.5514 57.5516 37.5532C57.5739 37.555 57.5945 37.5651 57.6094 37.5815C58.0335 38.0325 58.3533 38.5485 58.5686 39.1292C58.577 39.1518 58.577 39.1766 58.5684 39.1992C58.5599 39.2217 58.5434 39.2403 58.5221 39.2516C57.6705 39.6896 57.6571 40.8177 58.735 40.9278C58.7713 40.9315 58.8048 40.949 58.8285 40.9766C58.8522 41.0041 58.8643 41.0397 58.8622 41.0758C58.8288 41.6762 58.6926 42.2524 58.4536 42.8046C58.4453 42.8238 58.4307 42.8396 58.4123 42.8494C58.3938 42.8592 58.3726 42.8624 58.352 42.8585C58.1147 42.8132 57.903 42.6909 57.6705 42.7557C56.9413 42.96 57.0784 43.5938 57.3989 44.0979C57.4242 44.1379 57.4189 44.1738 57.383 44.2056C56.9205 44.6126 56.405 44.936 55.8365 45.1758C55.8217 45.1821 55.8058 45.1851 55.7898 45.1847C55.7738 45.1843 55.758 45.1804 55.7435 45.1733C55.729 45.1663 55.7162 45.1562 55.7058 45.1437C55.6955 45.1313 55.6879 45.1168 55.6835 45.1012C55.4229 44.1554 54.1272 44.334 54.0489 45.319C54.0474 45.34 54.0417 45.3606 54.032 45.3793C54.0223 45.3981 54.0089 45.4147 53.9925 45.4282C53.9762 45.4417 53.9572 45.4518 53.9369 45.4578C53.9165 45.4638 53.8951 45.4657 53.874 45.4634C53.2867 45.3973 52.7218 45.2492 52.1794 45.0192C52.137 45.0013 52.1186 44.9699 52.1243 44.925C52.1562 44.6827 52.2614 44.4319 52.1782 44.2056C52.0542 43.8687 51.8132 43.7048 51.4551 43.7137C51.2128 43.7186 51.0403 43.9046 50.8299 44.0233C50.8152 44.0313 50.7982 44.0343 50.7818 44.0316C50.7654 44.0289 50.7504 44.0208 50.7393 44.0086C50.3193 43.5437 50.0016 43.0159 49.7862 42.4254C49.7796 42.4061 49.7802 42.3851 49.7878 42.3664C49.7955 42.3477 49.8097 42.3325 49.8278 42.3238C50.0489 42.2178 50.2344 42.0734 50.3845 41.8907C50.401 41.8707 50.4121 41.8468 50.4169 41.8213C50.4217 41.7959 50.42 41.7696 50.4119 41.745C50.4039 41.7203 50.3897 41.6981 50.3708 41.6804C50.3519 41.6627 50.3289 41.65 50.3038 41.6435ZM56.3761 40.7932C56.3761 40.5048 56.3193 40.2192 56.2089 39.9527C56.0985 39.6863 55.9367 39.4442 55.7328 39.2402C55.5289 39.0363 55.2868 38.8745 55.0203 38.7642C54.7538 38.6538 54.4683 38.597 54.1799 38.597C53.5974 38.597 53.0388 38.8284 52.6269 39.2402C52.215 39.6521 51.9836 40.2107 51.9836 40.7932C51.9836 41.3757 52.215 41.9343 52.6269 42.3461C53.0388 42.758 53.5974 42.9894 54.1799 42.9894C54.4683 42.9894 54.7538 42.9326 55.0203 42.8222C55.2868 42.7119 55.5289 42.5501 55.7328 42.3461C55.9367 42.1422 56.0985 41.9001 56.2089 41.6336C56.3193 41.3672 56.3761 41.0816 56.3761 40.7932Z" fill="#F5A020"/>
<path d="M38.2779 45.2664L36.4843 51.7632C36.483 51.7681 36.4808 51.7726 36.4777 51.7765C36.4747 51.7805 36.4709 51.7838 36.4666 51.7863C36.4623 51.7888 36.4575 51.7905 36.4526 51.7911C36.4476 51.7918 36.4426 51.7914 36.4378 51.7901L26.449 49.129C26.4442 49.1277 26.4396 49.1255 26.4357 49.1225C26.4317 49.1194 26.4284 49.1157 26.4259 49.1113C26.4234 49.107 26.4218 49.1023 26.4211 49.0973C26.4204 49.0924 26.4208 49.0873 26.4221 49.0825L27.2846 45.7619C27.2859 45.7571 27.2881 45.7525 27.2912 45.7486C27.2942 45.7446 27.298 45.7413 27.3023 45.7388C27.3066 45.7363 27.3114 45.7347 27.3163 45.734C27.3213 45.7333 27.3263 45.7337 27.3311 45.735L33.4499 47.3243C33.4595 47.327 33.4697 47.3258 33.4784 47.321C33.4871 47.3162 33.4936 47.3081 33.4964 47.2986L35.2901 40.803C35.2914 40.7982 35.2936 40.7936 35.2966 40.7897C35.2997 40.7857 35.3034 40.7824 35.3078 40.7799C35.3121 40.7774 35.3169 40.7758 35.3218 40.7751C35.3268 40.7744 35.3318 40.7748 35.3366 40.7761L44.3612 43.2329C44.3661 43.2342 44.3706 43.2364 44.3746 43.2394C44.3785 43.2424 44.3819 43.2462 44.3844 43.2505C44.3869 43.2549 44.3885 43.2596 44.3891 43.2646C44.3898 43.2695 44.3895 43.2746 44.3882 43.2794L43.484 46.6049C43.4827 46.6097 43.4805 46.6142 43.4775 46.6182C43.4744 46.6222 43.4706 46.6255 43.4663 46.628C43.462 46.6305 43.4572 46.6321 43.4523 46.6328C43.4473 46.6334 43.4423 46.6331 43.4375 46.6318L38.3244 45.2394C38.3196 45.2382 38.3146 45.2378 38.3096 45.2385C38.3047 45.2391 38.2999 45.2408 38.2956 45.2433C38.2913 45.2458 38.2875 45.2491 38.2845 45.2531C38.2814 45.257 38.2792 45.2615 38.2779 45.2664Z" fill="#F5A020"/>
</svg>
