<svg width="445" height="234" viewBox="0 0 445 234" fill="none" xmlns="http://www.w3.org/2000/svg">
<g clip-path="url(#clip0_545_196)">
<path fill-rule="evenodd" clip-rule="evenodd" d="M260.432 128.805C260.432 132.562 259.701 135.879 258.256 138.755C256.794 141.639 254.843 144.01 252.378 145.869C249.463 148.112 246.332 149.69 243.016 150.635C239.691 151.565 235.387 152.029 230.12 152.029H207.926V76.4033H228.45C233.966 76.4033 238.093 76.5796 240.848 76.9321C243.602 77.2846 246.252 78.1177 248.781 79.4476C251.551 80.8976 253.583 82.8043 254.851 85.1516C256.136 87.4989 256.778 90.2708 256.778 93.4352C256.778 97.0002 255.815 100.181 253.888 102.977C251.969 105.789 249.303 107.992 245.906 109.57V109.978C250.515 111.204 254.088 113.431 256.618 116.668C259.155 119.904 260.416 123.934 260.416 128.789L260.432 128.805ZM246.067 94.8772C246.067 93.0346 245.754 91.4644 245.119 90.1105C244.509 88.7887 243.497 87.7232 242.116 86.9461C240.446 86.0328 238.591 85.472 236.544 85.2637C234.504 85.0715 231.678 84.9673 228.073 84.9673H218.188V107.11H229.895C233.115 107.11 235.5 106.95 237.017 106.622C238.543 106.293 240.117 105.636 241.747 104.619C243.313 103.65 244.421 102.352 245.079 100.765C245.738 99.1712 246.067 97.2005 246.067 94.8772ZM249.728 129.213C249.728 126.361 249.303 124.014 248.468 122.155C247.633 120.313 245.954 118.743 243.433 117.461C241.795 116.604 240.021 116.067 238.101 115.827C236.174 115.594 233.444 115.474 229.903 115.474H218.188V143.473H226.579C231.084 143.473 234.641 143.265 237.242 142.856C239.844 142.448 242.14 141.591 244.108 140.261C246.051 138.939 247.464 137.433 248.371 135.759C249.279 134.076 249.736 131.897 249.736 129.221L249.728 129.213Z" fill="white"/>
<path fill-rule="evenodd" clip-rule="evenodd" d="M270.694 152.029V76.4033H319.176V85.3438H280.963V106.069H316.575V115.025H280.963V143.081H319.176V152.029H270.694Z" fill="white"/>
<path fill-rule="evenodd" clip-rule="evenodd" d="M352.001 153.375C346.381 153.375 341.619 152.798 337.685 151.685C333.75 150.555 330.056 149.145 326.596 147.495V134.909H327.326C330.715 138.018 334.553 140.421 338.857 142.127C343.145 143.834 347.296 144.683 351.279 144.683C356.948 144.683 361.243 143.537 364.158 141.214C367.065 138.891 368.518 135.831 368.518 132.049C368.518 129.029 367.747 126.586 366.23 124.687C364.712 122.788 362.287 121.386 358.955 120.465C356.57 119.792 354.386 119.239 352.411 118.799C350.436 118.358 347.954 117.765 344.975 117.028C342.31 116.347 339.909 115.482 337.797 114.433C335.693 113.383 333.822 112.013 332.184 110.323C330.586 108.656 329.35 106.718 328.467 104.451C327.575 102.215 327.142 99.6198 327.142 96.6716C327.142 90.543 329.583 85.4078 334.481 81.258C339.355 77.1242 345.594 75.0493 353.174 75.0493C357.51 75.0493 361.597 75.4739 365.467 76.3231C369.321 77.1723 372.902 78.374 376.186 79.9282V91.9851H375.408C372.959 89.774 369.803 87.8593 365.957 86.209C362.111 84.5667 358.072 83.7495 353.856 83.7495C349.079 83.7495 345.224 84.839 342.269 87.0101C339.323 89.1971 337.861 92.0652 337.861 95.6141C337.861 98.8186 338.728 101.374 340.455 103.273C342.189 105.172 344.702 106.565 347.986 107.439C350.179 108.008 352.836 108.664 355.992 109.393C359.148 110.114 361.757 110.795 363.845 111.404C369.177 112.999 373.079 115.402 375.528 118.614C377.993 121.835 379.222 125.792 379.222 130.495C379.222 133.427 378.603 136.351 377.383 139.219C376.146 142.103 374.42 144.547 372.204 146.542C369.715 148.737 366.896 150.435 363.765 151.621C360.633 152.806 356.707 153.391 352.001 153.391V153.375Z" fill="white"/>
<path fill-rule="evenodd" clip-rule="evenodd" d="M407.839 152.029V85.3438H381.831V76.4033H444.125V85.3438H418.117V152.029H407.839Z" fill="white"/>
<path d="M402.692 182.504H391.354V162.171H393.956V180.101H402.692V182.504ZM418.912 162.171L412.183 182.504H409.381L402.652 162.171H405.438L410.85 179.019L416.254 162.171H418.92H418.912ZM427.616 182.504H420.02V180.429H422.517V164.246H420.02V162.171H427.616V164.246H425.119V180.429H427.616V182.504ZM444.992 162.171L438.263 182.504H435.453L428.732 162.171H431.518L436.93 179.019L442.334 162.171H444.984H444.992Z" fill="white"/>
<path fill-rule="evenodd" clip-rule="evenodd" d="M169.296 152.125L152.249 141.911H107.725L90.6621 152.125C106.978 181.591 155.766 229.826 208.609 234C190.197 223.281 160.889 184.755 169.304 152.125H169.296Z" fill="white"/>
<path fill-rule="evenodd" clip-rule="evenodd" d="M181.332 0C181.613 21.9428 164.173 67.5667 132.777 76.323V96.7917L155.051 136.864L172.09 147.102C188.487 117.677 204.289 49.6616 181.332 0.00801123V0Z" fill="white"/>
<path fill-rule="evenodd" clip-rule="evenodd" d="M127.189 76.315C94.4922 76.2749 29.8942 96.0547 0 141.534C18.1469 130.327 64.8871 123.197 87.8759 147.094L104.915 136.856L127.181 96.7837L127.197 76.315H127.189Z" fill="white"/>
<path fill-rule="evenodd" clip-rule="evenodd" d="M119.537 125.167C119.537 119.191 124.21 114.344 129.975 114.344C135.74 114.344 140.413 119.191 140.413 125.167C140.413 131.144 135.74 136.023 129.975 136.023C124.21 136.023 119.537 131.176 119.537 125.167Z" fill="white"/>
</g>
<defs>
<clipPath id="clip0_545_196">
<rect width="445" height="234" fill="white"/>
</clipPath>
</defs>
</svg>
