<svg width="241" height="68" viewBox="0 0 241 68" fill="none" xmlns="http://www.w3.org/2000/svg">
<g opacity="0.8">
<path d="M21.6734 0.0405273H65.363C75.0417 0.362722 78.1476 7.88274 77.0844 16.2405C77.05 16.5025 76.8997 16.6335 76.6333 16.6335H8.1541C8.11225 16.6336 8.07124 16.6217 8.03594 16.5993C8.00063 16.5768 7.97251 16.5447 7.95488 16.5067C7.93726 16.4688 7.93088 16.4265 7.93649 16.3851C7.9421 16.3436 7.95948 16.3046 7.98656 16.2727L21.6734 0.0405273Z" fill="white"/>
<path d="M53.3709 67.057H1.83906L1.00136 66.8765C0.730715 66.8207 0.634057 66.6596 0.711383 66.3932L13.0965 24.0311C13.1958 23.686 13.4063 23.3833 13.6953 23.17C13.9843 22.9568 14.3356 22.845 14.6946 22.8519C35.4569 23.2063 55.6262 22.7101 76.0791 22.9485C76.3455 22.9485 76.4744 23.0817 76.4658 23.348C76.3627 27.8523 73.0376 30.3332 69.268 31.9378C69.0489 32.0323 69.0016 32.1826 69.1262 32.3888C70.6276 34.8182 72.245 37.1444 72.7283 39.9475C75.0546 53.3315 65.7431 63.5644 53.3709 67.057ZM44.1561 42.5251L29.29 42.4542C29.0753 42.4499 28.9399 42.5508 28.8841 42.757L27.2409 48.8981C27.1765 49.1386 27.271 49.2632 27.5244 49.2718C32.3015 49.3749 37.0786 49.3363 41.8556 49.1558C45.4513 49.0205 47.8162 45.2186 44.6652 42.7055C44.5148 42.5852 44.3451 42.5251 44.1561 42.5251Z" fill="white"/>
<path d="M115.716 67.0567H95.9137L95.0953 66.844C94.8719 66.7882 94.7903 66.6507 94.8504 66.4316L106.598 23.1867C106.649 23.0062 106.767 22.916 106.952 22.916H128.185C128.408 22.916 128.49 23.0234 128.43 23.2382L116.959 66.5347C116.895 66.771 116.742 66.887 116.502 66.8827C116.175 66.8827 115.913 66.9407 115.716 67.0567Z" fill="white"/>
<path d="M222.504 67.0567H202.244L200.324 66.8956C200.111 66.8787 199.909 66.7927 199.75 66.6507L186.644 54.8262C186.532 54.7284 186.391 54.6718 186.243 54.666C186.095 54.6601 185.95 54.7053 185.832 54.7939L169.561 67.0567H146.666L158.832 23.2575C158.892 23.0299 159.04 22.916 159.276 22.916H182.178C182.461 22.916 182.562 23.0513 182.481 23.322L177.796 38.6713C177.783 38.7066 177.783 38.745 177.795 38.7806C177.806 38.8161 177.83 38.8467 177.861 38.8675C177.892 38.8882 177.929 38.898 177.966 38.8951C178.004 38.8923 178.039 38.877 178.067 38.8518L193.79 26.2282C193.876 26.1591 193.985 26.1242 194.096 26.1302C194.206 26.1361 194.311 26.1825 194.389 26.2604L207.103 38.7873C207.131 38.8158 207.166 38.8365 207.205 38.8472C207.244 38.858 207.285 38.8586 207.324 38.8488C207.363 38.8391 207.398 38.8194 207.427 38.7916C207.457 38.7639 207.478 38.7291 207.49 38.6907L212.052 23.2769C212.125 23.0363 212.286 22.916 212.535 22.916H234.451C234.67 22.916 234.749 23.0213 234.689 23.2318L222.504 67.0567Z" fill="white"/>
<path d="M84.9974 16.0081L94.9403 0.45252C94.9585 0.424735 94.9834 0.401934 95.0127 0.386182C95.0419 0.370429 95.0746 0.362223 95.1079 0.362305H153.296C153.327 0.362256 153.357 0.369262 153.385 0.382782C153.412 0.396301 153.436 0.415972 153.455 0.440269C153.474 0.464567 153.486 0.492841 153.492 0.522901C153.498 0.552961 153.497 0.584001 153.49 0.613617L149.172 16.1692C149.161 16.2117 149.136 16.2493 149.101 16.2762C149.066 16.303 149.023 16.3175 148.979 16.3174H85.1714C85.1348 16.3187 85.0985 16.3099 85.0666 16.2919C85.0346 16.274 85.0082 16.2476 84.9903 16.2157C84.9723 16.1837 84.9635 16.1475 84.9647 16.1109C84.966 16.0743 84.9773 16.0387 84.9974 16.0081Z" fill="white"/>
<path d="M183.963 16.4721H160.745C160.702 16.4728 160.659 16.4633 160.62 16.4444C160.581 16.4255 160.547 16.3977 160.521 16.3632C160.494 16.3287 160.476 16.2885 160.469 16.2459C160.461 16.2032 160.463 16.1593 160.475 16.1177L164.863 0.562103C164.88 0.50373 164.916 0.452552 164.965 0.416455C165.014 0.380357 165.073 0.361343 165.134 0.362342H188.229C188.271 0.362899 188.312 0.373051 188.35 0.392026C188.387 0.411001 188.42 0.4383 188.446 0.471848C188.471 0.505396 188.489 0.544309 188.497 0.585631C188.505 0.626952 188.504 0.669593 188.493 0.710312L184.233 16.2659C184.218 16.3254 184.183 16.3781 184.134 16.4154C184.084 16.4527 184.024 16.4727 183.963 16.4721Z" fill="white"/>
<path d="M218.728 0.381444L240.295 0.375C240.346 0.375341 240.396 0.387297 240.442 0.409958C240.488 0.432618 240.528 0.465387 240.559 0.505772C240.59 0.546156 240.611 0.593093 240.621 0.643013C240.632 0.692933 240.63 0.744521 240.618 0.793853L236.796 16.2205C236.778 16.2932 236.735 16.3574 236.675 16.403C236.616 16.4485 236.543 16.4728 236.468 16.4718H214.294C214.243 16.4718 214.192 16.4597 214.145 16.4367C214.099 16.4137 214.059 16.3803 214.028 16.3391C213.996 16.2979 213.975 16.2501 213.966 16.1993C213.956 16.1486 213.958 16.0963 213.972 16.0465L218.405 0.626312C218.425 0.555953 218.467 0.493951 218.525 0.449746C218.584 0.405541 218.655 0.381556 218.728 0.381444Z" fill="white"/>
</g>
</svg>
