<svg width="111" height="162" viewBox="0 0 111 162" fill="none" xmlns="http://www.w3.org/2000/svg">
<g opacity="0.8">
<path d="M8.83768 51.5087H8.81741C6.15176 52.8146 3.42529 54.0396 0.627869 55.1633C6.35447 59.233 13.4392 61.3894 20.8483 60.9338C22.0342 60.8528 23.2201 60.7111 24.4363 60.4985C41.5452 57.431 52.9173 41.0712 49.8361 23.9826C49.6638 23.0107 49.4408 22.0793 49.1975 21.1479C37.947 33.5595 24.3248 43.9464 8.83768 51.5188V51.5087Z" fill="white"/>
<path d="M87.1454 49.2413C88.1184 49.0692 89.0711 48.8465 90.034 48.5934C77.547 37.3157 67.1378 23.6387 59.5766 8.11915C58.2793 5.45663 57.0731 2.75363 55.9886 0C51.8837 5.67935 49.6843 12.7355 50.1404 20.1055C50.2114 21.3507 50.3634 22.6061 50.5864 23.8411C53.6575 40.9298 70.0365 52.3088 87.1555 49.2413H87.1454Z" fill="white"/>
<path d="M24.5279 61.0357C23.5549 61.2078 22.6022 61.4305 21.6697 61.6735C34.2378 72.9411 44.718 86.608 52.35 102.107C53.6069 104.699 54.8029 107.331 55.8975 109.994C59.8098 104.395 61.8876 97.5516 61.5227 90.3942C61.4619 89.068 61.2998 87.7418 61.0666 86.4257C57.9956 69.3371 41.6368 57.948 24.5279 61.0256V61.0357Z" fill="white"/>
<path d="M90.8346 49.3422C89.6488 49.4232 88.4426 49.5649 87.2466 49.7775C70.1378 52.845 58.7454 69.2047 61.8165 86.3035C61.9989 87.3159 62.232 88.3283 62.5057 89.3001C73.6954 76.8177 87.277 66.3701 102.693 58.7369C105.379 57.4107 108.126 56.1453 110.923 55.0317C105.227 51.0126 98.1728 48.8664 90.8245 49.3422H90.8346Z" fill="white"/>
<path d="M24.4873 161.098C22.592 161.098 21.6494 160.126 21.6494 158.172V132.103C21.6494 130.16 22.592 129.178 24.4873 129.178C26.3827 129.178 27.3253 130.15 27.3253 132.103V158.172C27.3253 160.116 26.3827 161.098 24.4873 161.098Z" fill="white"/>
<path d="M55.0154 161.098C53.1201 161.098 52.1775 160.126 52.1775 158.172V148.261H48.3665C47.2718 148.261 46.3698 148.433 45.64 148.767C44.9204 149.111 44.292 149.779 43.7548 150.782L39.062 159.367C38.5857 160.257 37.9877 160.794 37.2478 160.986C36.5079 161.179 35.8085 161.108 35.1598 160.784C34.5112 160.46 34.0551 159.954 33.8118 159.255C33.5584 158.567 33.6699 157.777 34.1463 156.886L37.2883 151.136C38.2005 149.425 39.3864 148.301 40.8358 147.775C38.5046 147.299 36.7004 146.297 35.4335 144.738C34.1666 143.189 33.528 141.235 33.528 138.876C33.528 135.93 34.4605 133.632 36.3153 131.992C38.1802 130.352 40.8256 129.532 44.2515 129.532H54.8431C56.85 129.532 57.8534 130.534 57.8534 132.539V158.172C57.8534 160.116 56.9108 161.098 55.0154 161.098ZM45.2245 144.06H52.1775V134.017H45.2245C41.0892 134.017 39.0215 135.687 39.0215 139.018C39.0215 142.349 41.0892 144.06 45.2245 144.06Z" fill="white"/>
<path d="M67.472 161.098C65.5766 161.098 64.634 160.126 64.634 158.172V132.053C64.634 130.139 65.5766 129.178 67.472 129.178C69.3673 129.178 70.31 130.139 70.31 132.053V142.764H74.7392L82.4017 130.636C82.9085 129.836 83.5065 129.37 84.216 129.238C84.9254 129.107 85.5843 129.208 86.1924 129.552C86.8005 129.897 87.2059 130.393 87.4087 131.061C87.6114 131.729 87.4492 132.458 86.9222 133.247L80.0097 143.786C81.1956 144.313 82.2294 145.062 83.1315 146.023C84.0335 146.985 84.8342 148.19 85.5437 149.627L89.1722 157.068C89.6486 158.01 89.7297 158.82 89.4155 159.478C89.1013 160.146 88.6148 160.612 87.9357 160.875C87.2566 161.138 86.5573 161.158 85.8275 160.915C85.1079 160.682 84.5302 160.136 84.1247 159.275L80.628 151.753C79.9185 150.225 79.0671 149.131 78.0839 148.473C77.0906 147.825 75.8642 147.501 74.3844 147.501H70.31V158.172C70.31 160.116 69.3673 161.098 67.472 161.098Z" fill="white"/>
</g>
</svg>
