<svg width="120" height="143" viewBox="0 0 120 143" fill="none" xmlns="http://www.w3.org/2000/svg">
<g opacity="0.8">
<path d="M106.106 27.0139V13.7264L92.9321 13.7198V40.0681H79.7579V26.8939H66.5837V13.7198H92.9321V0.665527H27.0578V13.7198H53.4062V40.0681H40.232V26.8939H27.0578V13.7198H13.8837V27.0139H0.709473V79.7106H13.8837V66.5364H27.0578V79.7106H40.232V66.5364H53.4062V79.7106H66.5804V66.5364H79.7545V79.7106H92.9287V66.5364H106.103V79.7106H119.277V27.0139H106.103H106.106Z" fill="white"/>
<path d="M20.5508 102.747V89.5864H0.812828V122.489H27.1345V102.747H20.5541H20.5508ZM7.38992 96.1669H13.9703V102.747H7.38992V96.1669ZM20.6141 115.908H7.39325V109.328H20.6174V115.908H20.6141Z" fill="white"/>
<path d="M33.7119 89.5864V122.485H56.7417V115.905H40.2923V109.324H53.4531V102.747H40.2923V96.1669H56.7417V89.5864H33.7119Z" fill="white"/>
<path d="M92.9358 89.5864V96.1669H102.805V122.485H109.385V96.1669H119.254V89.5864H92.9358Z" fill="white"/>
<path d="M69.6092 102.734L69.6192 96.1402L86.3552 96.1669V89.5864H63.322V102.747L63.3153 109.338L79.7747 109.324V115.905H63.322V122.485H86.3552V109.324V102.747L69.6092 102.734Z" fill="white"/>
<path d="M94.3748 129.066H105.347V142.223H94.3748V129.066ZM102.564 139.581V131.748H97.1802V139.581H102.564Z" fill="white"/>
<path d="M14.5369 142.226V129.072H25.4954V142.21H22.8765V137.035H17.3023V142.226H14.5369ZM17.3256 134.263H22.7766V131.724H17.3256V134.263Z" fill="white"/>
<path d="M58.3343 142.227H55.6221V129.069H66.554V142.177H63.8685V137.009H58.3309V142.227H58.3343ZM58.3376 134.27H63.8152V131.751H58.3376V134.27Z" fill="white"/>
<path d="M8.94917 134.277V129.083H11.698V142.204H8.96916V137.009H3.45826V142.224H0.709473V129.069H3.39495V134.277H8.9525H8.94917Z" fill="white"/>
<path d="M83.2133 137.022V142.214H80.5412V129.069H83.18V134.277H88.7609V129.086H91.473V142.227H88.7942V137.022H83.2133Z" fill="white"/>
<path d="M28.4205 129.066H39.3824V131.668H31.226V139.631H39.4123V142.22H28.4205V129.062V129.066Z" fill="white"/>
<path d="M69.4427 129.066H77.6524V131.648H74.9736V142.223H72.1848V131.691H69.4427V129.066Z" fill="white"/>
<path d="M53.5263 142.226L47.1824 135.682L52.7699 129.065H49.5114L44.9767 134.432V129.062H42.2546V142.222H44.9767V136.825L50.1744 142.222H53.5263V142.226Z" fill="white"/>
<path d="M119.251 129.066H116.548V137.536L111.544 129.066H108.285H108.272V142.227H110.978V133.624L116.062 142.227H119.251V129.066Z" fill="white"/>
</g>
</svg>
