<svg width="39" height="39" viewBox="0 0 39 39" fill="none" xmlns="http://www.w3.org/2000/svg">
<g clip-path="url(#clip0_545_291)">
<path d="M19.0491 3.42493C24.1301 3.42493 24.7318 3.44721 26.73 3.53635C28.587 3.61806 29.5899 3.93005 30.2584 4.19004C31.1424 4.53174 31.7812 4.94772 32.4423 5.60884C33.1109 6.27739 33.5194 6.90879 33.8611 7.79276C34.1211 8.4613 34.4331 9.47155 34.5148 11.3212C34.6039 13.3268 34.6262 13.9285 34.6262 19.002C34.6262 24.083 34.6039 24.6847 34.5148 26.6829C34.4331 28.54 34.1211 29.5428 33.8611 30.2113C33.5194 31.0953 33.1034 31.7341 32.4423 32.3952C31.7738 33.0638 31.1424 33.4723 30.2584 33.814C29.5899 34.074 28.5796 34.386 26.73 34.4677C24.7243 34.5569 24.1226 34.5791 19.0491 34.5791C13.9682 34.5791 13.3665 34.5569 11.3683 34.4677C9.5112 34.386 8.50839 34.074 7.83984 33.814C6.95587 33.4723 6.31704 33.0563 5.65593 32.3952C4.98738 31.7267 4.57882 31.0953 4.23712 30.2113C3.97713 29.5428 3.66515 28.5325 3.58343 26.6829C3.49429 24.6772 3.47201 24.0756 3.47201 19.002C3.47201 13.9211 3.49429 13.3194 3.58343 11.3212C3.66515 9.46412 3.97713 8.4613 4.23712 7.79276C4.57882 6.90879 4.99481 6.26996 5.65593 5.60884C6.32447 4.9403 6.95587 4.53174 7.83984 4.19004C8.50839 3.93005 9.51863 3.61806 11.3683 3.53635C13.3665 3.44721 13.9682 3.42493 19.0491 3.42493ZM19.0491 0.000488281C13.8865 0.000488281 13.2402 0.0227731 11.2123 0.111913C9.19179 0.201052 7.8027 0.527896 6.59932 0.995878C5.34394 1.48614 4.28169 2.13241 3.22688 3.19465C2.16463 4.24947 1.51837 5.31171 1.0281 6.55966C0.560123 7.77047 0.233278 9.15213 0.144139 11.1726C0.0549997 13.208 0.0327148 13.8542 0.0327148 19.0169C0.0327148 24.1795 0.0549997 24.8258 0.144139 26.8537C0.233278 28.8742 0.560123 30.2633 1.0281 31.4667C1.51837 32.7221 2.16463 33.7843 3.22688 34.8391C4.28169 35.894 5.34394 36.5476 6.59189 37.0305C7.8027 37.4985 9.18436 37.8253 11.2049 37.9144C13.2328 38.0036 13.879 38.0259 19.0417 38.0259C24.2043 38.0259 24.8506 38.0036 26.8785 37.9144C28.899 37.8253 30.2881 37.4985 31.4915 37.0305C32.7394 36.5476 33.8017 35.894 34.8565 34.8391C35.9113 33.7843 36.565 32.7221 37.0478 31.4741C37.5158 30.2633 37.8427 28.8817 37.9318 26.8612C38.021 24.8332 38.0432 24.187 38.0432 19.0243C38.0432 13.8617 38.021 13.2154 37.9318 11.1875C37.8427 9.16699 37.5158 7.7779 37.0478 6.57452C36.5799 5.31171 35.9336 4.24947 34.8714 3.19465C33.8165 2.13983 32.7543 1.48614 31.5064 1.00331C30.2955 0.535325 28.9139 0.20848 26.8934 0.119341C24.858 0.0227731 24.2118 0.000488281 19.0491 0.000488281Z" fill="#FBFBFB"/>
<path d="M19.0491 9.24854C13.6562 9.24854 9.28091 13.6238 9.28091 19.0167C9.28091 24.4097 13.6562 28.7849 19.0491 28.7849C24.442 28.7849 28.8173 24.4097 28.8173 19.0167C28.8173 13.6238 24.442 9.24854 19.0491 9.24854ZM19.0491 25.3531C15.5504 25.3531 12.7128 22.5154 12.7128 19.0167C12.7128 15.518 15.5504 12.6804 19.0491 12.6804C22.5478 12.6804 25.3854 15.518 25.3854 19.0167C25.3854 22.5154 22.5478 25.3531 19.0491 25.3531Z" fill="#FBFBFB"/>
<path d="M31.4841 8.86252C31.4841 10.1253 30.459 11.143 29.2036 11.143C27.9408 11.143 26.9231 10.1179 26.9231 8.86252C26.9231 7.59971 27.9482 6.58203 29.2036 6.58203C30.459 6.58203 31.4841 7.60714 31.4841 8.86252Z" fill="#FBFBFB"/>
</g>
<defs>
<clipPath id="clip0_545_291">
<rect width="38.0328" height="38.0328" fill="white" transform="translate(0.0327148 0.000488281)"/>
</clipPath>
</defs>
</svg>
