<svg width="39" height="39" viewBox="0 0 39 39" fill="none" xmlns="http://www.w3.org/2000/svg">
<g clip-path="url(#clip0_545_292)">
<path d="M35.2829 0.000488281H2.87332C1.32081 0.000488281 0.0654297 1.22616 0.0654297 2.74152V35.2848C0.0654297 36.8002 1.32081 38.0333 2.87332 38.0333H35.2829C36.8354 38.0333 38.0982 36.8002 38.0982 35.2923V2.74152C38.0982 1.22616 36.8354 0.000488281 35.2829 0.000488281ZM11.349 32.4101H5.7035V14.2554H11.349V32.4101ZM8.52624 11.7817C6.71374 11.7817 5.25037 10.3184 5.25037 8.5133C5.25037 6.70823 6.71374 5.24486 8.52624 5.24486C10.3313 5.24486 11.7947 6.70823 11.7947 8.5133C11.7947 10.3109 10.3313 11.7817 8.52624 11.7817ZM32.475 32.4101H26.837V23.5853C26.837 21.4831 26.7998 18.7718 23.9028 18.7718C20.9686 18.7718 20.5229 21.0671 20.5229 23.4367V32.4101H14.8923V14.2554H20.3001V16.7364H20.3744C21.1246 15.3102 22.9668 13.8022 25.7079 13.8022C31.4202 13.8022 32.475 17.5609 32.475 22.4488V32.4101Z" fill="#FBFBFB"/>
</g>
<defs>
<clipPath id="clip0_545_292">
<rect width="38.0328" height="38.0328" fill="white" transform="translate(0.0654297 0.000488281)"/>
</clipPath>
</defs>
</svg>
