<svg width="39" height="39" viewBox="0 0 39 39" fill="none" xmlns="http://www.w3.org/2000/svg">
<g clip-path="url(#clip0_545_293)">
<path fill-rule="evenodd" clip-rule="evenodd" d="M38.131 19.0169C38.131 29.5194 29.617 38.0333 19.1145 38.0333C8.61208 38.0333 0.0981445 29.5194 0.0981445 19.0169C0.0981445 8.51442 8.61208 0.000488281 19.1145 0.000488281C29.617 0.000488281 38.131 8.51442 38.131 19.0169ZM19.796 14.0392C17.9464 14.8086 14.2497 16.4009 8.70607 18.8162C7.80587 19.1741 7.3343 19.5243 7.29137 19.8668C7.21882 20.4455 7.94355 20.6734 8.93044 20.9837C9.06468 21.0259 9.20377 21.0697 9.34636 21.116C10.3173 21.4316 11.6234 21.8009 12.3024 21.8155C12.9183 21.8288 13.6057 21.5749 14.3646 21.0538C19.5443 17.5574 22.218 15.7901 22.3859 15.7521C22.5043 15.7252 22.6684 15.6914 22.7796 15.7902C22.8908 15.889 22.8799 16.0762 22.8681 16.1264C22.7963 16.4325 19.9514 19.0773 18.4792 20.446C18.0203 20.8726 17.6948 21.1753 17.6282 21.2444C17.4792 21.3993 17.3272 21.5457 17.1812 21.6865C16.2792 22.5561 15.6027 23.2081 17.2186 24.273C17.9952 24.7847 18.6166 25.2079 19.2365 25.6301C19.9135 26.0911 20.5888 26.551 21.4625 27.1237C21.6851 27.2696 21.8976 27.4212 22.1047 27.5688C22.8926 28.1305 23.6004 28.6351 24.4749 28.5546C24.9831 28.5079 25.508 28.0301 25.7745 26.605C26.4045 23.2372 27.6428 15.9401 27.929 12.9332C27.9541 12.6697 27.9225 12.3326 27.8972 12.1846C27.8719 12.0366 27.8189 11.8257 27.6266 11.6696C27.3987 11.4847 27.047 11.4457 26.8897 11.4485C26.1744 11.4611 25.0771 11.8427 19.796 14.0392Z" fill="#FBFBFB"/>
</g>
<defs>
<clipPath id="clip0_545_293">
<rect width="38.0328" height="38.0328" fill="white" transform="translate(0.0981445 0.000488281)"/>
</clipPath>
</defs>
</svg>
